HIERARCHY
ROOT Hips
{
	OFFSET 0.00000 0.00000 0.00000
	CHANNELS 6 Xposition Yposition Zposition Zrotation Yrotation Xrotation 
	JOINT LHipJoint
	{
		OFFSET 0 0 0
		CHANNELS 3 Zrotation Yrotation Xrotation
		JOINT LeftHip
		{
			OFFSET 1.62329 -1.80800 0.67318
			CHANNELS 3 Zrotation Yrotation Xrotation
			JOINT LeftKnee
			{
				OFFSET 2.57139 -7.06484 0.00000
				CHANNELS 3 Zrotation Yrotation Xrotation
				JOINT LeftAnkle
				{
					OFFSET 2.52017 -6.92413 0.00000
					CHANNELS 3 Zrotation Yrotation Xrotation
					JOINT LeftToe
					{
						OFFSET 0.23295 -0.64001 2.10214
						CHANNELS 3 Zrotation Yrotation Xrotation
						End Site
						{
							OFFSET 0.00000 -0.00000 1.10139
						}
					}
				}
			}
		}
	}
	JOINT RHipJoint
	{
		OFFSET 0 0 0
		CHANNELS 3 Zrotation Yrotation Xrotation
		JOINT RightHip
		{
			OFFSET -1.48061 -1.80800 0.67318
			CHANNELS 3 Zrotation Yrotation Xrotation
			JOINT RightKnee
			{
				OFFSET -2.63258 -7.23296 0.00000
				CHANNELS 3 Zrotation Yrotation Xrotation
				JOINT RightAnkle
				{
					OFFSET -2.54779 -7.00000 0.00000
					CHANNELS 3 Zrotation Yrotation Xrotation
					JOINT RightToe
					{
						OFFSET -0.23067 -0.63376 2.12161
						CHANNELS 3 Zrotation Yrotation Xrotation
						End Site
						{
							OFFSET -0.00000 -0.00000 1.11000
						}
					}
				}
			}
		}
	}
	JOINT lowerback
	{
		OFFSET 0 0 0
		CHANNELS 3 Zrotation Yrotation Xrotation
		JOINT Chest
		{
			OFFSET -0.02108 2.07573 -0.16981
			CHANNELS 3 Zrotation Yrotation Xrotation
			JOINT Chest2
			{
				OFFSET 0.05070 2.08439 -0.03141
				CHANNELS 3 Zrotation Yrotation Xrotation
				JOINT lowerneck
				{
					OFFSET 0 0 0
					CHANNELS 3 Zrotation Yrotation Xrotation
					JOINT Neck
					{
						OFFSET -0.10731 1.60408 0.31370
						CHANNELS 3 Zrotation Yrotation Xrotation
						JOINT Head
						{
							OFFSET 0.08411 1.65679 -0.30822
							CHANNELS 3 Zrotation Yrotation Xrotation
							End Site
							{
								OFFSET 0.03911 1.69149 -0.14146
							}
						}
					}
				}
				JOINT LeftCollar
				{
					OFFSET 0 0 0
					CHANNELS 3 Zrotation Yrotation Xrotation
					JOINT LeftShoulder
					{
						OFFSET 3.52315 0.73219 -0.54694
CHANNELS 3 Zrotation Xrotation Yrotation
						JOINT LeftElbow
						{
OFFSET 0 -5.324620 -0.000000
CHANNELS 3 Zrotation Xrotation Yrotation
							JOINT LeftWrist
							{
OFFSET 0 -3.484020 -0.000000
CHANNELS 3 Zrotation Xrotation Yrotation
								JOINT lhand
								{
									OFFSET 0 0 0
CHANNELS 3 Zrotation Xrotation Yrotation
									JOINT LFingers
									{
OFFSET 0 -0.572480 -0.000000
CHANNELS 3 Zrotation Xrotation Yrotation
										End Site
										{
OFFSET 0 -0.461540 -0.000000
										}
									}
								}
								JOINT LThumb
								{
OFFSET 0 0.000000 0.000000
CHANNELS 3 Zrotation Xrotation Yrotation
									End Site
									{
OFFSET 0 -0.468590 0.468590
									}
								}
							}
						}
					}
				}
				JOINT RightCollar
				{
					OFFSET 0 0 0
					CHANNELS 3 Zrotation Yrotation Xrotation
					JOINT RightShoulder
					{
						OFFSET -3.41766 0.93592 -0.10019
CHANNELS 3 Zrotation Xrotation Yrotation
						JOINT RightElbow
						{
OFFSET 0 -5.335890 -0.000000
CHANNELS 3 Zrotation Xrotation Yrotation
							JOINT RightWrist
							{
OFFSET 0 -3.641340 -0.000000
CHANNELS 3 Zrotation Xrotation Yrotation
								JOINT rhand
								{
									OFFSET 0 0 0
CHANNELS 3 Zrotation Xrotation Yrotation
									JOINT RFingers
									{
OFFSET 0 -0.734810 -0.000000
CHANNELS 3 Zrotation Xrotation Yrotation
										End Site
										{
OFFSET 0 -0.592420 -0.000000
										}
									}
								}
								JOINT RThumb
								{
OFFSET 0 0.000000 0.000000
CHANNELS 3 Zrotation Xrotation Yrotation
									End Site
									{
OFFSET 0 -0.601470 0.601470
									}
								}
							}
						}
					}
				}
			}
		}
	}
}
MOTION
Frames: 10
Frame Time: 0.008333333333333333
-0.719111 17.897408 1.354938 4.966834 1.471261 7.599190 0.000000 0.000000 0.000000 -11.686711 -7.663697 -4.391809 0.574802 4.855212 13.495975 -0.113140 6.621474 -5.506808 2.485742 -9.806500 -28.356921 0.000000 0.000000 0.000000 13.876058 3.225741 -19.660344 -3.424289 -11.352122 33.476828 -1.333210 0.985235 -21.535787 -0.090009 -1.934713 5.325355 3.022363 1.519677 8.986180 6.023749 2.529677 1.728849 4.281528 1.251467 -3.389434 -11.497958 -9.091013 -28.476410 9.453498 -9.417703 7.635305 3.614278 -3.917409 7.818861 0.000000 0.000000 0.000000 12.520035 11.560192 -15.291474 34.095094 -44.154985 14.179284 17.883826 13.855085 -19.122815 0.000000 0.000000 0.000000 -7.125000 0.000000 0.000000 -10.250931 49.720426 1.204393 0.000000 0.000000 0.000000 -55.216225 -19.892705 6.127674 -26.068659 -37.276252 -8.929311 -63.673456 34.115206 -2.269037 0.000000 0.000000 0.000000 7.125000 0.000000 0.000000 -26.889760 24.614645 -14.886061
-0.625938 17.887838 1.339112 4.600277 2.354872 7.812934 0.000000 0.000000 0.000000 -11.560070 -7.803863 -4.495439 0.518946 4.616781 12.818789 -0.085271 6.273612 -6.074355 2.284954 -9.435949 -27.168702 0.000000 0.000000 0.000000 13.989334 2.809933 -19.815086 -3.391019 -11.302533 33.307179 -1.359104 0.803036 -21.801567 -0.110011 -2.136813 5.883844 2.791619 1.509137 8.551214 5.864554 2.470446 1.600632 4.258363 1.225659 -3.279952 -10.935598 -8.298351 -28.470233 9.137310 -8.513470 7.734777 3.570067 -3.502521 7.719327 0.000000 0.000000 0.000000 12.728284 11.739203 -15.695430 34.258270 -44.275159 14.293054 17.683814 13.994837 -19.846988 0.000000 0.000000 0.000000 -7.125000 0.000000 0.000000 -10.688466 50.423749 1.443336 0.000000 0.000000 0.000000 -59.877423 -20.752637 -0.775611 -26.998409 -38.177585 -9.498116 -63.938014 30.355478 -1.522632 0.000000 0.000000 0.000000 7.125000 0.000000 0.000000 -27.455150 26.065482 -14.205465
-0.533944 17.885469 1.346100 3.753218 4.562510 6.962214 0.000000 0.000000 0.000000 -10.814440 -9.088736 -3.260804 0.490019 4.488239 12.454575 -0.021421 5.665096 -7.412219 1.651889 -8.096674 -23.009839 0.000000 0.000000 0.000000 14.918662 1.458261 -18.528356 -3.290768 -11.151502 32.792501 -1.431739 -0.107709 -22.677666 -0.066962 -1.669475 4.593086 3.331186 1.181300 8.728336 5.620707 2.089136 1.607929 3.737004 1.029888 -3.320973 -10.558914 -7.886242 -28.248104 9.385511 -8.174571 7.901227 3.655516 -3.308166 7.712519 0.000000 0.000000 0.000000 13.182196 11.659411 -16.056426 34.314819 -44.316564 14.332564 17.087765 13.760613 -20.298791 0.000000 0.000000 0.000000 -7.125000 0.000000 0.000000 -11.429244 50.782613 1.650122 0.000000 0.000000 0.000000 -65.943439 -21.520383 -8.936654 -27.903884 -39.027437 -10.063120 -62.959008 31.921441 1.755449 0.000000 0.000000 0.000000 7.125000 0.000000 0.000000 -28.706877 32.584688 -9.834838
-0.435729 17.847831 1.342932 3.306245 6.271958 6.563087 0.000000 0.000000 0.000000 -10.837844 -8.795895 -3.075000 0.457833 4.340627 12.037106 0.009006 4.926544 -7.327017 2.141639 -9.155114 -26.281684 0.000000 0.000000 0.000000 15.195086 0.429169 -18.174606 -3.330071 -11.211102 32.995258 -1.503102 -0.353324 -23.321846 -0.056803 -1.538309 4.231484 3.298853 1.042638 8.463792 5.107571 1.880122 1.397315 3.242039 0.924271 -3.366663 -10.291208 -7.601728 -27.318779 9.766803 -8.026107 7.557488 3.779889 -3.218310 7.459596 0.000000 0.000000 0.000000 13.476140 12.032874 -16.129380 34.864292 -44.714808 14.717843 17.295804 13.988417 -19.965054 0.000000 0.000000 0.000000 -7.125000 0.000000 0.000000 -11.105618 50.480313 1.517360 0.000000 0.000000 0.000000 -72.959961 -22.946511 -17.591735 -28.326436 -39.415044 -10.330293 -62.895020 29.608627 3.095271 0.000000 0.000000 0.000000 7.125000 0.000000 0.000000 -29.531353 35.143219 -8.067228
-0.337013 17.826339 1.344707 2.429260 7.774824 6.025848 0.000000 0.000000 0.000000 -10.356375 -9.045214 -3.291429 0.519519 4.619503 12.826535 0.065672 4.479839 -8.408309 2.173284 -9.217943 -26.479602 0.000000 0.000000 0.000000 15.964474 -0.532055 -17.479725 -3.255562 -11.097619 32.609834 -1.511239 -1.067009 -23.647027 -0.029274 -1.104852 3.037283 3.592187 1.015784 8.279847 4.665443 1.847791 1.311469 2.619582 0.902721 -3.327569 -9.894893 -7.553354 -27.042225 10.167644 -8.176011 7.374346 3.834364 -3.245309 7.382682 0.000000 0.000000 0.000000 13.878166 12.148137 -16.962885 35.492409 -45.160553 15.161478 18.953598 12.985062 -21.360751 0.000000 0.000000 0.000000 -7.125000 0.000000 0.000000 -9.988469 52.173117 1.781889 0.000000 0.000000 0.000000 -81.045130 -25.138356 -27.606412 -27.920492 -39.042907 -10.073611 -61.518733 27.302160 3.673570 0.000000 0.000000 0.000000 7.125000 0.000000 0.000000 -28.783453 36.068021 -7.062092
-0.238532 17.822142 1.344345 1.741283 9.038588 5.575129 0.000000 0.000000 0.000000 -10.082813 -9.115428 -3.466522 0.577763 4.867462 13.530822 0.125121 3.951812 -9.313881 2.109117 -9.089558 -26.076088 0.000000 0.000000 0.000000 16.465308 -1.336216 -16.729899 -3.148686 -10.931951 32.050745 -1.542684 -1.427965 -24.027970 -0.016929 -0.837397 2.301408 3.772036 1.108770 8.183968 4.073936 1.961180 1.263001 1.890462 0.953567 -3.298904 -9.029708 -7.776092 -28.036311 9.853534 -8.696981 8.211713 3.494770 -3.452112 7.810243 0.000000 0.000000 0.000000 13.955220 11.657819 -16.137103 35.408542 -45.101608 15.102046 17.569660 14.879184 -23.508632 0.000000 0.000000 0.000000 -7.125000 0.000000 0.000000 -12.247977 54.087638 2.770605 0.000000 0.000000 0.000000 -89.523778 -27.614503 -37.489229 -27.340798 -38.502179 -9.710528 -61.806043 23.865227 4.153290 0.000000 0.000000 0.000000 7.125000 0.000000 0.000000 -29.336088 36.980861 -6.486229
-0.135316 17.804202 1.336064 0.897769 10.008380 5.075430 0.000000 0.000000 0.000000 -9.570147 -9.231494 -3.985947 0.689244 5.307355 14.787319 0.182954 3.407466 -10.075844 2.246576 -9.361808 -26.933884 0.000000 0.000000 0.000000 17.049206 -2.069223 -16.146881 -3.085490 -10.832177 31.715836 -1.533589 -1.641893 -24.045096 -0.003296 -0.371278 1.020228 3.893359 1.376465 8.151456 3.710777 2.316290 1.181386 1.406522 1.125217 -3.347500 -9.386874 -7.889187 -26.954802 10.944995 -8.927400 7.336020 3.901137 -3.509234 7.463459 0.000000 0.000000 0.000000 13.760597 11.340171 -16.120941 35.197644 -44.952707 14.952807 19.098245 15.230808 -22.279787 0.000000 0.000000 0.000000 -7.125000 0.000000 0.000000 -10.191686 53.134028 2.057252 0.000000 0.000000 0.000000 -98.090825 -30.163001 -47.105079 -26.944521 -38.126198 -9.464830 -60.911319 24.778906 5.055591 0.000000 0.000000 0.000000 7.125000 0.000000 0.000000 -29.148675 38.462998 -5.234860
-0.038865 17.801037 1.323689 0.434103 10.472115 4.758239 0.000000 0.000000 0.000000 -9.387790 -9.113678 -4.421706 0.786299 5.660869 15.803463 0.245336 2.646700 -10.715347 2.095642 -9.062395 -25.990661 0.000000 0.000000 0.000000 17.193946 -2.156016 -15.688979 -3.035402 -10.752076 31.448354 -1.531883 -1.948333 -24.158614 -0.008944 -0.609716 1.675449 3.811897 1.704283 8.301295 2.962430 2.733518 0.983086 0.623301 1.322714 -3.602119 -8.689480 -8.232128 -26.939505 11.248932 -9.726957 7.823427 3.764516 -3.825125 7.697465 0.000000 0.000000 0.000000 14.078610 11.210477 -15.921468 34.970184 -44.790829 14.792301 19.971983 13.981957 -19.847152 0.000000 0.000000 0.000000 -7.125000 0.000000 0.000000 -8.466575 50.796509 1.221645 0.000000 0.000000 0.000000 -105.272779 -32.332106 -53.651108 -27.081894 -38.256827 -9.549907 -61.581570 28.208198 5.495550 0.000000 0.000000 0.000000 7.125000 0.000000 0.000000 -30.052009 39.366206 -4.676482
0.063846 17.777331 1.293621 0.018102 10.543483 4.929135 0.000000 0.000000 0.000000 -9.324456 -8.931515 -5.141233 0.871887 5.953431 16.649262 0.296602 2.603139 -11.580884 2.155571 -9.182765 -26.368850 0.000000 0.000000 0.000000 17.273451 -1.784809 -15.890671 -3.037365 -10.755361 31.459107 -1.505160 -2.250295 -24.083629 -0.001802 -0.265648 0.729796 3.755733 1.986017 8.087997 2.361029 3.077023 0.717403 -0.002466 1.485071 -3.722871 -8.756610 -8.317479 -25.751366 12.337233 -10.037818 7.227656 4.110474 -3.924944 7.434606 0.000000 0.000000 0.000000 13.913365 11.306595 -15.378927 35.164573 -44.929299 14.929450 19.407382 13.383217 -19.865834 0.000000 0.000000 0.000000 -7.125000 0.000000 0.000000 -9.018126 50.723364 1.280814 0.000000 0.000000 0.000000 -111.432345 -35.231549 -57.574413 -28.415883 -39.496099 -10.387197 -62.175527 28.936494 4.602581 0.000000 0.000000 0.000000 7.125000 0.000000 0.000000 -29.960161 37.857987 -5.924063
0.176040 17.774280 1.260585 -0.225101 10.223823 5.205617 0.000000 0.000000 0.000000 -9.528121 -8.659108 -6.029959 0.968535 6.265735 17.557377 0.334600 2.758859 -12.294776 2.068783 -9.007745 -25.819733 0.000000 0.000000 0.000000 17.054486 -1.562583 -16.222243 -3.015414 -10.720036 31.341331 -1.461766 -2.077057 -23.673669 -0.001423 -0.240990 0.662112 3.639025 2.294486 7.816876 1.927104 3.453235 0.479945 -0.419627 1.666681 -3.787866 -8.180601 -8.594098 -25.297442 11.836097 -10.692326 8.473817 3.748762 -4.251231 7.783111 0.000000 0.000000 0.000000 13.283952 11.154109 -14.564340 35.035942 -44.837801 14.838753 18.857344 15.252516 -23.124894 0.000000 0.000000 0.000000 -7.125000 0.000000 0.000000 -10.776964 53.945704 2.391384 0.000000 0.000000 0.000000 -115.885838 -36.973623 -54.788012 -30.553499 -41.362066 -11.774052 -61.349773 27.703045 3.215789 0.000000 0.000000 0.000000 7.125000 0.000000 0.000000 -28.354064 35.213540 -7.610855
